<svg xmlns="http://www.w3.org/2000/svg" viewBox="0 0 152.82 166.69"><defs><linearGradient id="linear-gradient" x1="14.11" x2="138.71" y1="174.84" y2="-40.98" gradientUnits="userSpaceOnUse"><stop offset=".21" stop-color="#072542"/><stop offset=".96" stop-color="#1782b1"/></linearGradient><style>.cls-2{stroke-width:0;fill:#fff}</style></defs><path id="Layer_2" d="M0-32.83h152.82v199.52H0z" data-name="Layer 2" style="stroke-width:0;fill:url(#linear-gradient)"/><g id="Layer_1" data-name="Layer 1"><path d="M74.38 42.92c19.76 0 29.19 8.92 29.19 23.82 0 16.47-11.15 26.65-26.96 26.65-14.04 0-26.55-8.46-27.36-23.61h13.02c1.22 8.41 7.65 11.96 14.24 11.96 8.67 0 14.29-5.47 14.29-14.14s-4.87-13.68-17.38-13.68H51.17l7.55-39.42h42.21V26H67.79l-2.94 16.92h9.53Z" class="cls-2"/><text style="font-family:HKNova-SemiBold,&quot;HK Nova&quot;;font-size:25.9px;font-weight:600;fill:#fff" transform="translate(50.7 126.18)"><tspan x="0" y="0">Å</tspan><tspan x="19.37" y="0" style="letter-spacing:-.02em">R</tspan><tspan x="36.25" y="0">S</tspan></text><path d="M66.56 142.1h-3.92v5.55h3.92c1.85 0 3.01-1.01 3.01-2.75s-1.16-2.81-3.01-2.81ZM44.61 151.76h6.51l-3.25-8.5-3.26 8.5z" class="cls-2"/><path d="M2.55 133.84v30.31h147.73v-30.31H2.55Zm25.38 25.17c-5.72 0-10.16-4.35-10.16-10.02s4.44-10.02 10.16-10.02c3.62 0 6.72 1.73 8.5 4.44l-2.82 1.57c-1.23-1.78-3.29-2.94-5.69-2.94-3.85 0-6.89 3.04-6.89 6.95s3.05 6.94 6.91 6.94c3.25 0 5.89-2.12 6.68-5.11h-5.16v-2.77h8.59c.04.27.06.58.06.91 0 5.69-4.43 10.04-10.17 10.04Zm25.85-.3-1.58-4.12h-8.67l-1.58 4.12h-3.49l7.6-19.43h3.58l7.62 19.43h-3.48Zm16.83 0-4.69-8.24h-3.28v8.24h-3.25v-19.43h7.49c3.68 0 5.95 2.53 5.95 5.64 0 2.4-1.43 4.36-3.5 5.16l5.09 8.63h-3.79Zm19.94 0-1.58-4.12H80.3l-1.58 4.12h-3.49l7.6-19.43h3.58l7.62 19.43h-3.48Zm23.45 0h-2.86l-11.82-14.4v14.4h-3.17v-19.43h2.86l11.83 14.37v-14.37H114v19.43Zm15.63-16.51h-5.11v16.51h-3.25V142.2h-5.1v-2.92h13.46v2.92Zm5.42 16.51h-3.25v-19.43h3.25v19.43Z" class="cls-2"/><path d="M81.38 151.76h6.51l-3.25-8.5-3.26 8.5z" class="cls-2"/></g></svg>